# xmcd CD database file
#
# Track frame offsets:
#	150
#	22266
#	44915
#	66256
#	86186
#	100338
#	121404
#	141397
#	165816
#	187920
#	212300
#
# Disc length: 3101 seconds
#
# Revision: 1
# Processed by: cddbd v1.5.2PL0 Copyright (c) Steve Scherf et al.
# Submitted via: CDex 1.51
#
DISCID=9d0c1b0b
DTITLE=Hangover subject - Little man
DYEAR=2007
DGENRE=Blues
TTITLE0=wicked man
TTITLE1=without you
TTITLE2=little man
TTITLE3=as the crow flies
TTITLE4=dark cloud
TTITLE5=bison
TTITLE6=bang on
TTITLE7=blame and judge
TTITLE8=fast on highway
TTITLE9=should i go
TTITLE10=voodoo child (slight return)
EXTD=YEAR: 2007
EXTT0=
EXTT1=
EXTT2=
EXTT3=
EXTT4=
EXTT5=
EXTT6=
EXTT7=
EXTT8=
EXTT9=
EXTT10=
PLAYORDER=
